<?xml version="1.0" standalone="no"?><!DOCTYPE svg PUBLIC "-//W3C//DTD SVG 1.1//EN" "http://www.w3.org/Graphics/SVG/1.1/DTD/svg11.dtd"><svg class="icon" width="200px" height="200.00px" viewBox="0 0 1024 1024" version="1.1" xmlns="http://www.w3.org/2000/svg"><path fill="#515151" d="M316.82820218 952.61062028H199.58796733c-67.81452889 0-123.00220742-55.14525911-123.00220743-122.8183899V202.11192341c0-67.75089974 55.18767854-122.81131999 123.00220743-122.81131999h622.43443744c67.78624927 0 122.98806763 55.08869986 122.98806764 122.81131999v33.17199434a33.58911873 33.58911873 0 0 0 33.62446822 33.58911872 33.58204881 33.58204881 0 0 0 33.59618863-33.58911872v-33.17199434c0-104.76185249-85.33375351-190.00369725-190.20165458-190.00369723h-622.43443743c-104.89618069 0-190.27235364 85.24184475-190.27235364 190.00369723v627.68030697c0 104.72650298 85.37617294 190.01076717 190.27235364 190.01076716h117.24023482a33.61739834 33.61739834 0 0 0 33.64567798-33.59618863 33.63860805 33.63860805 0 0 0-33.65274787-33.59618863z m-131.2739963-627.45406999h-0.58680211a33.58204881 33.58204881 0 0 0-33.62446824 33.5537692 33.61739834 33.61739834 0 0 0 33.62446824 33.59618863h0.58680211a33.60325853 33.60325853 0 0 0 33.62446825-33.59618863 33.58204881 33.58204881 0 0 0-33.62446825-33.5537692z m112.82154422 0a33.60325853 33.60325853 0 0 0-33.64567796 33.5537692 33.61739834 33.61739834 0 0 0 33.64567796 33.59618863h189.49466408a33.59618863 33.59618863 0 0 0 33.61739835-33.59618863 33.59618863 33.59618863 0 0 0-33.61739835-33.5537692H298.3757501zM185.55420588 500.46898491h-0.58680211a33.60325853 33.60325853 0 0 0-33.62446824 33.59618863 33.61739834 33.61739834 0 0 0 33.62446824 33.56790902h0.58680211a33.60325853 33.60325853 0 0 0 33.62446825-33.56790902 33.60325853 33.60325853 0 0 0-33.62446825-33.59618863z m201.10344811 0H298.3757501a33.61739834 33.61739834 0 0 0-33.64567796 33.59618863 33.61739834 33.61739834 0 0 0 33.64567796 33.56790902H386.6505841a33.61739834 33.61739834 0 0 0 33.64567795-33.56790902 33.63153815 33.63153815 0 0 0-33.63860806-33.59618863z m545.59163984 214.88976291c-23.56399342-23.47915455-50.56396066-42.27803199-79.93941597-55.82396999 42.03765521-34.02745282 68.90329427-85.92762555 68.90329426-143.99275542 0-102.2237566-83.23399172-185.39411918-185.65570567-185.39411919-102.38636441 0-185.62742606 83.14208295-185.62742606 185.39411919 0 58.06512988 26.86563906 109.96530259 68.87501465 143.99275542a277.57861067 277.57861067 0 0 0-79.91113636 55.82396999c-52.52939425 52.47990492-81.46651548 122.22451788-81.46651548 196.44438072a33.61032844 33.61032844 0 0 0 33.61739834 33.56790901 33.62446826 33.62446826 0 0 0 33.65274787-33.56790901c0-116.15146947 94.6236087-210.64074998 210.93768598-210.64074998 116.28579767 0 210.88112676 94.48928051 210.88112678 210.64074998 0 18.52315114 15.09424721 33.567909 33.68102748 33.56790901a33.63153815 33.63153815 0 0 0 33.61739833-33.56790901c-0.09190877-74.21986284-29.02902999-143.9644758-81.56549415-196.44438072z m-196.7130371-81.60084367c-65.276433 0-118.40676917-53.01721771-118.40676917-118.22295165 0-65.19866403 53.13033618-118.20174193 118.40676917-118.20174192s118.41383907 53.0101478 118.41383908 118.20174192c0 65.20573393-53.13033618 118.22295164-118.41383908 118.22295165z" /></svg>