<svg xmlns="http://www.w3.org/2000/svg" width="1920" height="1080" viewBox="0 0 1920 1080" role="img" aria-label="Gym background placeholder">
  <defs>
    <linearGradient id="bg" x1="0" y1="0" x2="1" y2="1">
      <stop offset="0%" stop-color="#0f172a"/>
      <stop offset="50%" stop-color="#1e293b"/>
      <stop offset="100%" stop-color="#334155"/>
    </linearGradient>
    <linearGradient id="accent" x1="0" y1="0" x2="1" y2="0">
      <stop offset="0%" stop-color="#f97316" stop-opacity="0.85"/>
      <stop offset="100%" stop-color="#22c55e" stop-opacity="0.85"/>
    </linearGradient>
  </defs>
  <rect width="1920" height="1080" fill="url(#bg)"/>
  <g opacity="0.2" stroke="#94a3b8" stroke-width="2" fill="none">
    <circle cx="220" cy="220" r="140"/>
    <circle cx="1680" cy="860" r="220"/>
    <path d="M80 760 C 320 620, 520 640, 760 520"/>
    <path d="M1040 220 C 1280 120, 1540 180, 1840 60"/>
  </g>
  <g transform="translate(290 230)">
    <rect x="0" y="0" rx="36" ry="36" width="1340" height="620" fill="#020617" fill-opacity="0.42" stroke="#475569"/>
    <rect x="80" y="180" width="460" height="42" rx="21" fill="url(#accent)"/>
    <rect x="80" y="250" width="760" height="24" rx="12" fill="#cbd5e1" fill-opacity="0.9"/>
    <rect x="80" y="294" width="640" height="24" rx="12" fill="#94a3b8" fill-opacity="0.8"/>
    <g transform="translate(920 110)" fill="none" stroke="#e2e8f0" stroke-width="20" stroke-linecap="round">
      <path d="M0 220 L130 80"/>
      <path d="M130 80 L260 220"/>
      <path d="M130 80 L130 10"/>
    </g>
    <text x="80" y="145" fill="#f8fafc" font-family="Barlow, Arial, sans-serif" font-size="62" font-weight="700">GYMLINK AUTH BACKGROUND</text>
    <text x="80" y="560" fill="#cbd5e1" font-family="Barlow, Arial, sans-serif" font-size="28">Replace this file: /public/auth-fitness-bg-placeholder.svg</text>
  </g>
</svg>
