<?xml version="1.0" standalone="no"?><!DOCTYPE svg PUBLIC "-//W3C//DTD SVG 1.1//EN" "http://www.w3.org/Graphics/SVG/1.1/DTD/svg11.dtd"><svg class="icon" width="200px" height="200.00px" viewBox="0 0 1024 1024" version="1.1" xmlns="http://www.w3.org/2000/svg"><path fill="#515151" d="M704 446.933333c-99.2 0-179.2 80-179.2 179.2S604.8 805.333333 704 805.333333 883.2 725.333333 883.2 626.133333 803.2 446.933333 704 446.933333z m-39.466667 104.533334s0-1.066667 0 0c-19.2 0-35.2 16-35.2 35.2 0 7.466667-6.4 13.866667-13.866666 13.866666-7.466667 0-13.866667-6.4-13.866667-13.866666v-1.066667c1.066667-34.133333 28.8-60.8 62.933333-60.8 7.466667 0 13.866667 6.4 13.866667 13.866667 0 6.4-6.4 12.8-13.866667 12.8z m302.933334 382.933333c0-1.066667-1.066667-2.133333-2.133334-3.2l-92.8-167.466667c-26.666667 52.266667-78.933333 89.6-139.733333 94.933334l86.4 155.733333v1.066667l3.2 3.2c2.133333 2.133333 5.333333 3.2 8.533333 3.2 7.466667 0 12.8-6.4 12.8-13.866667l19.2-82.133333 83.2 26.666666c2.133333 1.066667 4.266667 2.133333 7.466667 2.133334 7.466667 0 13.866667-6.4 13.866667-14.933334v-5.333333z m-513.066667 9.6c0-1.066667 1.066667-2.133333 2.133333-3.2l84.266667-171.733333c28.8 51.2 83.2 85.333333 145.066667 88.533333L608 1016.533333v1.066667l-3.2 3.2c-2.133333 2.133333-5.333333 3.2-8.533333 3.2-7.466667 0-13.866667-5.333333-13.866667-12.8l-23.466667-81.066667-83.2 29.866667c-2.133333 1.066667-4.266667 2.133333-7.466666 2.133333-7.466667 0-13.866667-6.4-14.933334-13.866666 1.066667-1.066667 1.066667-3.2 1.066667-4.266667z"  /><path fill="#515151" d="M377.6 935.466667l117.333333-225.066667c-14.933333-29.866667-23.466667-64-23.466666-100.266667 0-123.733333 101.333333-225.066667 225.066666-225.066666 61.866667 0 117.333333 24.533333 157.866667 65.066666V22.4C854.4 10.666667 841.6 0 825.6 0H84.266667C69.333333 0 56.533333 10.666667 56.533333 22.4v892.8C56.533333 928 69.333333 938.666667 84.266667 938.666667h291.2c1.066667-1.066667 2.133333-2.133333 2.133333-3.2zM210.133333 176H608c17.066667-2.133333 32 10.666667 34.133333 27.733333 2.133333 18.133333-9.6 34.133333-26.666666 36.266667H211.2c-13.866667-1.066667-25.6-12.8-27.733333-27.733333-2.133333-18.133333 9.6-34.133333 26.666666-36.266667z m-3.2 155.733333H535.466667c14.933333 0 27.733333 11.733333 29.866666 27.733334 2.133333 17.066667-9.6 34.133333-25.6 36.266666H211.2c-14.933333 0-27.733333-11.733333-29.866667-27.733333-2.133333-18.133333 9.6-34.133333 25.6-36.266667z m-25.6 192c-2.133333-17.066667 9.6-34.133333 25.6-36.266666H384c14.933333 1.066667 26.666667 11.733333 28.8 27.733333 2.133333 17.066667-9.6 34.133333-25.6 36.266667H215.466667c-17.066667 2.133333-32-10.666667-34.133334-27.733334z"  /></svg>