<?xml version="1.0" standalone="no"?><!DOCTYPE svg PUBLIC "-//W3C//DTD SVG 1.1//EN" "http://www.w3.org/Graphics/SVG/1.1/DTD/svg11.dtd"><svg class="icon" width="200px" height="200.00px" viewBox="0 0 1024 1024" version="1.1" xmlns="http://www.w3.org/2000/svg"><path fill="#515151" d="M51.894666 223.806636h914.606772c21.073082 0 31.405313-32.572797 15.994528-50.785544L844.265889 8.172386a20.956333 20.956333 0 0 0-16.169649-8.172386H162.221881a21.89032 21.89032 0 0 0-17.920876 10.44898L34.032165 175.297686c-12.842321 19.263482-2.043097 48.50895 17.862501 48.50895zM191.117104 74.543838h611.703112l62.693878 74.952457H141.090425z m275.934785 527.235663v256.846425h93.3987v-258.422528l106.241022 106.065899 65.787709-65.78771-180.434614-180.434614a52.536769 52.536769 0 0 0-37.125983-15.410786l-23.349675 1.751226-196.020523 195.8454 65.78771 65.787709z"  /><path fill="#515151" d="M1000.300093 280.079352H23.583185a23.349675 23.349675 0 0 0-23.349675 23.349675v697.221298a23.349675 23.349675 0 0 0 23.349675 23.349675h976.775282a23.349675 23.349675 0 0 0 23.349675-23.349675V303.429027a23.349675 23.349675 0 0 0-23.408049-23.349675z m-69.69878 650.813819H93.223591V373.478053h837.377722z"  /></svg>