<?xml version="1.0" standalone="no"?><!DOCTYPE svg PUBLIC "-//W3C//DTD SVG 1.1//EN" "http://www.w3.org/Graphics/SVG/1.1/DTD/svg11.dtd"><svg class="icon" width="200px" height="200.00px" viewBox="0 0 1024 1024" version="1.1" xmlns="http://www.w3.org/2000/svg"><path fill="#515151" d="M661.333333 625.066667a42.666667 42.666667 0 0 1-42.666666-42.666667V169.728a42.666667 42.666667 0 1 1 85.333333 0V582.4a42.666667 42.666667 0 0 1-42.666667 42.666667"  /><path fill="#515151" d="M261.959111 199.793778c-25.699556 0-51.441778 22.712889-55.082667 48.611555L171.093333 503.011556c-1.479111 10.524444 0.910222 20.024889 6.727111 26.695111 5.688889 6.542222 14.122667 10.026667 24.362667 10.026666h191.288889a42.666667 42.666667 0 0 1 39.025778 59.932445c-61.553778 139.178667-44.416 190.748444-34.176 206.478222 10.894222 16.739556 29.895111 18.033778 35.456 18.033778 19.655111 0 31.914667-18.744889 32.426666-19.541334l159.331556-245.475555A42.709333 42.709333 0 0 1 661.333333 539.733333h100.693334c25.728 0 51.456-22.698667 55.096889-48.611555L852.906667 236.515556c1.479111-10.538667-0.910222-20.024889-6.727111-26.709334-5.688889-6.556444-14.122667-10.026667-24.376889-10.026666H261.959111z m171.804445 709.717333c-43.804444 0-83.797333-21.233778-106.951112-56.817778-33.052444-50.744889-31.758222-127.146667 3.697778-227.626666h-128.327111c-35.157333 0-66.702222-13.980444-88.760889-39.352889-21.944889-25.258667-31.715556-59.733333-26.823111-94.577778L122.382222 236.515556c9.614222-68.437333 70.926222-122.055111 139.576889-122.055112h559.843556c35.185778 0 66.702222 13.980444 88.775111 39.381334 21.944889 25.244444 31.715556 59.704889 26.823111 94.563555l-35.768889 254.577778c-9.628444 68.48-70.940444 122.083556-139.591111 122.083556h-77.539556L538.680889 849.692444c-13.838222 22.613333-50.887111 59.818667-104.903111 59.818667z"  /></svg>