<?xml version="1.0" standalone="no"?><!DOCTYPE svg PUBLIC "-//W3C//DTD SVG 1.1//EN" "http://www.w3.org/Graphics/SVG/1.1/DTD/svg11.dtd"><svg class="icon" width="200px" height="200.00px" viewBox="0 0 1024 1024" version="1.1" xmlns="http://www.w3.org/2000/svg"><path fill="#515151" d="M795.33916 878.838899h-23.695678l-3.184529-94.736664c-0.979304-29.137621-14.911618-68.696592-32.406061-92.016717L613.394295 528.5837c-4.880147-6.505158-5.104251-20.429285-0.435929-27.087938l124.779911-177.970344c16.745383-23.882943 29.372981-63.889099 29.372982-93.058443v-85.306898H795.266505c24.13263 0 43.878346-19.744693 43.878347-43.878346 0-24.13263-19.744693-43.878346-43.878347-43.878346H228.661863c-24.13263 0-43.878346 19.744693-43.878346 43.878346 0 24.13263 19.744693 43.878346 43.878346 43.878346h23.257704l3.546779 105.540732c0.979304 29.136597 14.911618 68.695568 32.406061 92.015693l122.65962 163.502841c4.880147 6.505158 5.104251 20.428262 0.434905 27.086915L286.188045 711.276602c-16.745383 23.882943-29.372981 63.890122-29.372982 93.059466v74.503855h-28.080545c-24.13263 0-43.878346 19.744693-43.878346 43.878346 0 24.13263 19.744693 43.878346 43.878346 43.878346H795.340183c24.13263 0 43.878346-19.744693 43.878347-43.878346-0.001023-24.133653-19.74674-43.87937-43.87937-43.87937z m-472.375537-74.503854c0-15.567557 8.449439-42.337247 17.386995-55.08355l124.778888-177.970344c21.180392-30.209022 20.455891-75.244728-1.684362-104.757902L340.785523 303.021431c-9.349949-12.463869-18.685571-38.97057-19.20848-54.54222l-3.472078-103.31811h382.855688v85.306898c0 15.567557-8.449439 42.337247-17.385973 55.083549L558.794769 463.520869c-21.180392 30.210046-20.455891 75.245751 1.684362 104.758925l122.659621 163.502841c9.349949 12.462846 18.685571 38.969547 19.208481 54.541197l3.109827 92.515067H322.963623v-74.503854z"  /><path fill="#515151" d="M600.567151 306.183448c14.732539 0 18.772552 9.004071 8.976442 20.007682l-79.732949 89.567945c-9.79611 11.004635-25.826202 11.004635-35.621288 0l-79.732949-89.567945c-9.79611-11.004635-5.757121-20.007683 8.976442-20.007682h177.134302zM521.336646 646.783753c-5.255701-3.620457-13.854543-3.620457-19.110244 0l-88.62241 61.049424c-5.255701 3.620457-9.55461 11.803837-9.554609 18.185175v62.003145c0 6.381337 5.220908 11.603269 11.603269 11.603269h192.258768c6.381337 0 11.603269-5.220908 11.603269-11.603269V726.018352c0-6.381337-4.299933-14.564717-9.55461-18.185175l-88.623433-61.049424z"  /></svg>