<?xml version="1.0" standalone="no"?><!DOCTYPE svg PUBLIC "-//W3C//DTD SVG 1.1//EN" "http://www.w3.org/Graphics/SVG/1.1/DTD/svg11.dtd"><svg class="icon" width="200px" height="200.00px" viewBox="0 0 1024 1024" version="1.1" xmlns="http://www.w3.org/2000/svg"><path fill="#515151" d="M756.5312 417.6896l-219.7504 247.7056c-15.1552 16.7936-35.584 16.7936-51.2 0H480.768L266.24 417.6896c-15.1552-16.7936-10.24-39.168 4.9152-56.4224 15.1552-16.7936 40.96-11.2128 51.1488 0l189.0304 224.8704 188.672-213.6576c15.104-16.7936 35.584-16.7936 51.1488-5.632 20.48 11.264 20.48 33.6384 5.3248 50.8416z m158.3616-17.2032l-142.848-275.712C767.1296 108.032 756.9408 102.4 741.376 102.4H281.4464c-15.1552 0-25.3952 5.632-30.72 22.3744L107.9296 400.4864c-10.24 16.7936-4.9152 33.5872 4.9152 44.8l372.736 433.3056c15.2064 16.7936 35.6352 16.7936 51.2 5.632l4.9152-5.632 373.1968-432.896c4.9152-11.2128 10.24-28.0064 0-45.2096z"  /></svg>