<?xml version="1.0" standalone="no"?><!DOCTYPE svg PUBLIC "-//W3C//DTD SVG 1.1//EN" "http://www.w3.org/Graphics/SVG/1.1/DTD/svg11.dtd"><svg class="icon" width="200px" height="200.00px" viewBox="0 0 1024 1024" version="1.1" xmlns="http://www.w3.org/2000/svg"><path fill="#515151" d="M151.157675 847.375304c0-139.629107 83.509972-260.253372 204.546629-317.026401 44.675502 28.798906 98.18316 45.535079 155.746181 45.53508 57.734936 0 111.448278-16.873296 156.193364-45.809326 121.380488 56.635905 205.198475 177.431062 205.198476 317.30167 0 145.641031-721.68465 147.669224-721.68465-0.001023z m531.813255-380.019084c-22.441105 21.89159-49.349965 39.417755-78.698387 51.274804-29.349445 11.821233-61.067844 17.97335-92.822058 17.97335s-63.508429-6.152117-92.822059-17.97335c-29.349445-11.856026-56.257282-29.383214-78.698387-51.274804-22.474874-21.856797-40.448224-48.077995-52.613288-76.670193-12.131295-28.592198-18.454304-59.521628-18.454304-90.451058 0-30.963199 6.323009-61.892629 18.454304-90.485851 12.165064-28.557406 30.138414-54.778604 52.613288-76.66917 22.441105-21.89159 49.348941-39.417755 78.698387-51.241035 29.314653-11.856026 61.067844-18.007119 92.822059-18.007119s63.473637 6.152117 92.822058 18.007119c29.348422 11.82328 56.257282 29.349445 78.698387 51.241035 22.440082 21.890566 40.413432 48.111764 52.579519 76.66917 12.130272 28.593222 18.454304 59.522652 18.454304 90.485851 0 30.92943-6.324032 61.85886-18.454304 90.451058-12.166087 28.592198-30.139437 54.813397-52.579519 76.670193z"  /></svg>