<?xml version="1.0" standalone="no"?><!DOCTYPE svg PUBLIC "-//W3C//DTD SVG 1.1//EN" "http://www.w3.org/Graphics/SVG/1.1/DTD/svg11.dtd"><svg class="icon" width="200px" height="200.00px" viewBox="0 0 1024 1024" version="1.1" xmlns="http://www.w3.org/2000/svg"><path fill="#515151" d="M970.971429 650.971429c-14.628571-34.742857-32.914286-65.828571-56.685715-91.428572-10.971429-12.8-38.4-36.571429-65.828571-58.514286-7.314286-5.485714-14.628571-10.971429-21.942857-18.285714-16.457143-18.285714-29.257143-47.542857-27.428572-96.914286l-80.457143-1.828571c0 36.571429-1.828571 74.971429-1.828571 111.542857L486.4 493.714286l-1.828571-109.714286-84.114286 1.828571-9.142857 3.657143c7.314286 34.742857 3.657143 73.142857-10.971429 104.228572-12.8 27.428571-29.257143 36.571429-51.2 56.685714-3.657143 3.657143-84.114286 80.457143-102.4 177.371429-14.628571 78.628571 18.285714 118.857143-7.314286 144.457142-23.771429 23.771429-78.628571 21.942857-100.571428-16.457142-5.485714-9.142857-9.142857-20.114286-9.142857-32.914286 34.742857 7.314286 73.142857-5.485714 87.771428-29.257143 10.971429-18.285714 12.8-45.714286 0-58.514286-20.114286-20.114286-78.628571-5.485714-102.4 38.4-1.828571 3.657143-3.657143 9.142857-5.485714 12.8-25.6-18.285714-38.4-51.2-31.085714-84.114285 9.142857 7.314286 20.114286 10.971429 31.085714 14.628571 38.4 9.142857 85.942857-7.314286 98.742857-43.885714 5.485714-14.628571 3.657143-29.257143-1.828571-42.057143-16.457143-29.257143-73.142857-27.428571-107.885715-1.828572-10.971429 7.314286-18.285714 16.457143-25.6 29.257143-1.828571-3.657143-3.657143-9.142857-5.485714-12.8-18.285714-51.2 29.257143-100.571429 54.857143-113.371428 10.971429-7.314286 23.771429-9.142857 36.571429-5.485715 5.485714 3.657143 10.971429 7.314286 16.457142 12.8 9.142857 9.142857 31.085714 14.628571 82.285715-9.142857 21.942857-7.314286 43.885714-18.285714 64-31.085714 16.457143-10.971429 25.6-16.457143 27.428571-21.942857 9.142857-16.457143 0-38.4-10.971428-60.342857L93.257143 504.685714c-14.628571 10.971429-34.742857 18.285714-53.028572 45.714286-3.657143 5.485714-36.571429 58.514286-14.628571 111.542857 3.657143 9.142857 9.142857 16.457143 14.628571 23.771429-12.8 32.914286-9.142857 71.314286 9.142858 100.571428 9.142857 12.8 21.942857 23.771429 36.571428 29.257143 0 38.4 18.285714 71.314286 49.371429 89.6 31.085714 18.285714 67.657143 14.628571 95.085714-5.485714 1.828571 29.257143 1.828571 56.685714 3.657143 85.942857H292.571429l14.628571 18.285714h120.685714l18.285715-21.942857h374.857142c5.485714 7.314286 10.971429 14.628571 14.628572 20.114286h100.571428c3.657143-7.314286 5.485714-16.457143 9.142858-23.771429h49.371428c23.771429-137.142857 9.142857-257.828571-23.771428-327.314285zM128 771.657143c16.457143-18.285714 43.885714-25.6 53.028571-16.457143 7.314286 7.314286 1.828571 31.085714-10.971428 40.228571-10.971429 10.971429-34.742857 12.8-56.685714 3.657143 1.828571-9.142857 7.314286-20.114286 14.628571-27.428571z m-25.6-129.828572c25.6-12.8 64-9.142857 69.485714 9.142858 3.657143 12.8-9.142857 32.914286-23.771428 40.228571-20.114286 12.8-54.857143 7.314286-78.628572-14.628571 7.314286-14.628571 18.285714-27.428571 32.914286-34.742858z m515.657143 252.342858c-56.685714 0-106.057143-36.571429-128-95.085715-21.942857-56.685714-9.142857-122.514286 29.257143-166.4 40.228571-43.885714 98.742857-56.685714 151.771428-32.914285 51.2 23.771429 85.942857 78.628571 85.942857 140.8 0 40.228571-14.628571 78.628571-40.228571 107.885714-25.6 31.085714-62.171429 45.714286-98.742857 45.714286zM793.6 256c7.314286 5.485714 14.628571 10.971429 23.771429 12.8 29.257143 12.8 89.6-3.657143 155.428571-45.714286 3.657143-20.114286 3.657143-40.228571 0-60.342857l-195.657143 76.8c3.657143 5.485714 10.971429 12.8 16.457143 16.457143zM107.885714 479.085714L310.857143 400.457143c-10.971429-21.942857-20.114286-45.714286-12.8-65.828572 3.657143-10.971429 10.971429-20.114286 91.428571-54.857142 65.828571-27.428571 120.685714-47.542857 153.6-60.342858 23.771429-9.142857 62.171429-21.942857 107.885715-40.228571 10.971429-5.485714 21.942857-10.971429 34.742857-12.8 16.457143-3.657143 23.771429-7.314286 31.085714-5.485714 20.114286 5.485714 34.742857 29.257143 42.057143 45.714285 1.828571 5.485714 5.485714 10.971429 7.314286 14.628572l201.142857-78.628572c0-1.828571-1.828571-5.485714-1.828572-7.314285-27.428571-76.8-107.885714-102.4-133.485714-109.714286-40.228571-12.8-89.6-16.457143-181.028571 7.314286-100.571429 25.6-124.342857 53.028571-261.485715 115.2-129.828571 60.342857-248.685714 102.4-288.914285 177.371428-12.8 20.114286-18.285714 45.714286-18.285715 71.314286 1.828571 42.057143 27.428571 56.685714 25.6 82.285714z m0 0" /></svg>