<?xml version="1.0" standalone="no"?><!DOCTYPE svg PUBLIC "-//W3C//DTD SVG 1.1//EN" "http://www.w3.org/Graphics/SVG/1.1/DTD/svg11.dtd"><svg class="icon" width="200px" height="200.00px" viewBox="0 0 1024 1024" version="1.1" xmlns="http://www.w3.org/2000/svg"><path d="M903.52694638 411.7604794c-6.87125742-20.20958086-24.38622773-35.02993974-45.53892245-38.26347364l-205.73353301-31.39221533-89.32634736-190.77844306c-9.43113779-20.07485068-29.5059876-32.7395206-51.73652637-32.73952061C489.09580859 118.58682676 468.88622773 131.38622773 459.45508994 151.32634737l-89.46107754 190.77844305L164.39520957 373.49700576c-21.15269472 3.233533-38.80239521 18.0538919-45.53892246 38.26347364-6.73652724 20.34431104-1.61676651 42.70958086 13.33832344 57.93413115L282.95808418 624.36526982l-35.02994062 214.49101729c-3.63772441 21.55688613 5.52395214 43.38323349 23.30838368 56.0479043 17.91916172 12.6646708 41.36227559 14.01197607 60.62874258 3.36826406l3.63772442-2.02095879c1.34730527-0.40419141 2.55988037-0.94311387 3.77245459-1.6167665l61.30239521-34.35628711 242.38024014-157.09580859-71.81137793 87.57485068c-5.79341338 7.14071865-8.08383252 16.43712539-6.33233496 25.32934159 1.75149668 9.02694638 7.41017989 16.70658662 15.35928134 21.15269385 0.94311387 0.67365263 2.02095791 1.2125751 3.09880284 1.75149756l18.86227471 10.37425166 88.24850331 48.90718565c19.13173682 10.50898184 42.70958086 9.29640762 60.49401241-3.36826406 17.91916172-12.6646708 26.9461081-34.35628711 23.30838282-55.91317325l-35.02993976-214.49101816 150.76347276-154.53592823c15.22455117-15.35928135 20.47904209-37.72455117 13.60778466-58.20359237" fill="#FFB278" /><path d="M739.29041914 624.5l150.76347276-154.53592823c15.08982012-15.35928135 20.34431104-37.72455117 13.47305448-58.20359237-6.87125742-20.20958086-24.38622773-35.02993974-45.53892245-38.26347364l-205.73353301-31.39221533-89.32634737-190.77844306c-9.43113779-20.07485068-29.5059876-32.7395206-51.73652636-32.73952061C489.09580859 118.58682676 468.88622773 131.38622773 459.45508994 151.32634737l-89.46107754 190.77844305L164.39520957 373.63173682c-21.15269472 3.233533-38.80239521 18.0538919-45.53892246 38.26347275-6.73652724 20.34431104-1.61676651 42.70958086 13.33832344 57.93413203L282.95808418 624.36526982l-35.02994062 214.49101729c-3.63772441 21.55688613 5.52395214 43.38323349 23.30838368 56.0479043 17.91916172 12.6646708 41.36227559 14.01197607 60.62874258 3.36826406l3.63772442-2.02095879c1.34730527-0.40419141 2.55988037-0.94311387 3.77245459-1.6167665l61.30239521-34.35628711 242.38024014-157.09580859 96.33233496-78.68263448z" fill="#F99331" /></svg>