<?xml version="1.0" standalone="no"?><!DOCTYPE svg PUBLIC "-//W3C//DTD SVG 1.1//EN" "http://www.w3.org/Graphics/SVG/1.1/DTD/svg11.dtd"><svg class="icon" width="200px" height="200.00px" viewBox="0 0 1024 1024" version="1.1" xmlns="http://www.w3.org/2000/svg"><path fill="#515151" d="M628.62336 344.234667A230.798222 230.798222 0 0 0 398.052693 113.777778a230.798222 230.798222 0 0 0-230.456889 230.456889c0 80.668444 41.642667 151.836444 104.675556 193.080889a396.856889 396.856889 0 0 0-155.761778 96.369777A395.377778 395.377778 0 0 0 0.001138 915.057778c0 16.327111 13.084444 29.468444 29.468444 29.468444 16.384 0 29.468444-13.084444 29.468445-29.468444a339.399111 339.399111 0 0 1 339.057777-339.000889 339.399111 339.399111 0 0 1 339.000889 339.057778c0 16.270222 13.084444 29.411556 29.468445 29.411555 16.327111 0 29.468444-13.084444 29.468444-29.468444a395.377778 395.377778 0 0 0-116.622222-281.372445A395.548444 395.548444 0 0 0 523.947804 537.315556a230.4 230.4 0 0 0 104.675556-193.080889z m73.386667-205.368889a29.468444 29.468444 0 0 1 41.642666 1.991111 297.358222 297.358222 0 0 1 26.396445 365.226667 397.368889 397.368889 0 0 1 184.888889 147.171555 397.824 397.824 0 0 1 66.901333 265.045333 29.582222 29.582222 0 0 1-29.354667 26.396445c-0.910222 0-1.991111 0-3.072-0.170667a29.468444 29.468444 0 0 1-26.282666-32.426666 336.896 336.896 0 0 0-249.059556-362.325334 29.582222 29.582222 0 0 1-17.408-43.804444 28.444444 28.444444 0 0 1 4.551111-6.940445 237.966222 237.966222 0 0 0-1.251555-318.520889 29.468444 29.468444 0 0 1 2.048-41.699555z m-303.900445 34.019555a171.690667 171.690667 0 0 1 171.52 171.52 171.690667 171.690667 0 0 1-171.52 171.463111 171.804444 171.804444 0 0 1-171.52-171.463111 171.690667 171.690667 0 0 1 171.52-171.52z"  /></svg>